<svg xmlns="http://www.w3.org/2000/svg" width="8.688" height="106.08" viewBox="0 0 8.688 106.08">
  <path id="demo_text" d="M1.08-8.4H3.432a4.47,4.47,0,0,1,1.854.36,3.127,3.127,0,0,1,1.254.972,4.369,4.369,0,0,1,.678,1.332A5.186,5.186,0,0,1,7.44-4.2a5.144,5.144,0,0,1-.21,1.482,4.583,4.583,0,0,1-.654,1.332A3.076,3.076,0,0,1,5.31-.378,4.571,4.571,0,0,1,3.384,0H1.08ZM3.588-1.176a2.552,2.552,0,0,0,1.2-.27,2.07,2.07,0,0,0,.8-.72,3.309,3.309,0,0,0,.42-.96A4.271,4.271,0,0,0,6.144-4.2a3.664,3.664,0,0,0-.612-2.142A2.062,2.062,0,0,0,3.72-7.224H2.328v6.048ZM10.02,0V-8.4h5.208v1.176h-3.96v2.3h2.556v1.176H11.268v2.568h4.224V0ZM25.44,0H24.192V-4.6a11.1,11.1,0,0,1,.06-1.356q-.276.816-.516,1.392L21.708.144,19.668-4.6a14.55,14.55,0,0,1-.528-1.356A11.1,11.1,0,0,1,19.2-4.6V0H17.952V-8.4h1.26l2.256,5.244a6.275,6.275,0,0,1,.228.66q.084-.264.24-.66L24.18-8.4h1.26ZM33.1-.108A3.814,3.814,0,0,1,31.68.144a3.814,3.814,0,0,1-1.416-.252A2.941,2.941,0,0,1,29.22-.78a3.726,3.726,0,0,1-.684-1,4.97,4.97,0,0,1-.4-1.176A6.35,6.35,0,0,1,28.02-4.2a6.35,6.35,0,0,1,.12-1.248,4.97,4.97,0,0,1,.4-1.176,3.726,3.726,0,0,1,.684-1,2.941,2.941,0,0,1,1.044-.672,3.814,3.814,0,0,1,1.416-.252,3.814,3.814,0,0,1,1.416.252,2.941,2.941,0,0,1,1.044.672,3.726,3.726,0,0,1,.684,1,4.97,4.97,0,0,1,.4,1.176A6.35,6.35,0,0,1,35.34-4.2a6.35,6.35,0,0,1-.12,1.248,4.97,4.97,0,0,1-.4,1.176,3.726,3.726,0,0,1-.684,1A2.941,2.941,0,0,1,33.1-.108Zm-2.52-1.23a2.138,2.138,0,0,0,1.1.282,2.071,2.071,0,0,0,1.1-.294,2.06,2.06,0,0,0,.744-.774,4.037,4.037,0,0,0,.39-1A4.561,4.561,0,0,0,34.044-4.2a4.818,4.818,0,0,0-.126-1.11,3.809,3.809,0,0,0-.39-1,2,2,0,0,0-.744-.75,2.139,2.139,0,0,0-1.1-.282,2.071,2.071,0,0,0-1.1.294,2.06,2.06,0,0,0-.744.774,4.037,4.037,0,0,0-.39,1A4.561,4.561,0,0,0,29.316-4.2a4.818,4.818,0,0,0,.126,1.11,3.808,3.808,0,0,0,.39,1A2,2,0,0,0,30.576-1.338ZM44.28,0H43.1L39.468-5.7a5.5,5.5,0,0,1-.336-.624q.036.576.036.624V0H37.92V-8.4h1.26l3.54,5.6q.132.216.348.648-.036-.36-.036-.636V-8.4H44.28Zm5.46.144A3.392,3.392,0,0,1,47.808-.4,2.8,2.8,0,0,1,46.68-1.9l1.176-.432a2.171,2.171,0,0,0,.768.93,2.023,2.023,0,0,0,1.164.342,1.709,1.709,0,0,0,1.11-.336,1.165,1.165,0,0,0,.414-.96,1.048,1.048,0,0,0-.114-.486A1.448,1.448,0,0,0,50.94-3.2,1.731,1.731,0,0,0,50.5-3.5q-.3-.15-.5-.228t-.582-.21q-.48-.168-.72-.264a5.451,5.451,0,0,1-.63-.318,2.336,2.336,0,0,1-.588-.444,2.159,2.159,0,0,1-.354-.582,2,2,0,0,1-.156-.8,2,2,0,0,1,.72-1.56,2.85,2.85,0,0,1,1.956-.636,2.942,2.942,0,0,1,1.7.456,2.2,2.2,0,0,1,.894,1.212l-1.152.384a1.339,1.339,0,0,0-.558-.618,1.873,1.873,0,0,0-.978-.234,1.507,1.507,0,0,0-.942.264.885.885,0,0,0-.342.744.776.776,0,0,0,.264.576,1.815,1.815,0,0,0,.552.372q.288.12.876.324l.534.2q.174.066.51.222a3.513,3.513,0,0,1,.516.282,4.56,4.56,0,0,1,.42.342,1.789,1.789,0,0,1,.366.438,2.447,2.447,0,0,1,.216.54,2.479,2.479,0,0,1,.09.678,2.262,2.262,0,0,1-.8,1.842A3.128,3.128,0,0,1,49.74.144ZM58.212-7.2V0H56.964V-7.2H54.588V-8.4h6v1.2ZM62.928,0V-8.4h3.54a2.672,2.672,0,0,1,2.07.708,2.544,2.544,0,0,1,.642,1.776,2.523,2.523,0,0,1-.462,1.47,2.311,2.311,0,0,1-1.362.906L69.084,0H67.656L66-3.432H64.176V0Zm1.248-4.632h2.316A1.369,1.369,0,0,0,67.548-5a1.306,1.306,0,0,0,.336-.918,1.361,1.361,0,0,0-.318-.906A1.335,1.335,0,0,0,66.492-7.2H64.176ZM76.932,0,76.26-1.932h-3.4L72.18,0h-1.3L73.92-8.4H75.2L78.228,0ZM75.876-3.036l-1.02-2.856a6.755,6.755,0,0,1-.288-.948q-.108.432-.288.948L73.248-3.036ZM82.536-7.2V0H81.288V-7.2H78.912V-8.4h6v1.2ZM87.312,0V-8.4H88.56V0ZM97.86,0H96.684L93.048-5.7a5.5,5.5,0,0,1-.336-.624q.036.576.036.624V0H91.5V-8.4h1.26L96.3-2.8q.132.216.348.648-.036-.36-.036-.636V-8.4H97.86Zm6.24.144a3.642,3.642,0,0,1-1.662-.366,2.949,2.949,0,0,1-1.146-.99,4.829,4.829,0,0,1-.636-1.38A5.827,5.827,0,0,1,100.44-4.2a5.332,5.332,0,0,1,.228-1.548,5.063,5.063,0,0,1,.66-1.392,3.165,3.165,0,0,1,1.152-1.02,3.388,3.388,0,0,1,1.62-.384,3.185,3.185,0,0,1,1.758.426,3.63,3.63,0,0,1,1.11,1.17L105.84-6.3a2.073,2.073,0,0,0-1.74-1.02,2.214,2.214,0,0,0-.942.192,1.942,1.942,0,0,0-.678.5,2.785,2.785,0,0,0-.438.726,3.583,3.583,0,0,0-.24.834,5.559,5.559,0,0,0-.066.864,3.944,3.944,0,0,0,.594,2.22,1.981,1.981,0,0,0,1.77.9,1.709,1.709,0,0,0,1.278-.51,1.741,1.741,0,0,0,.5-1.266v-.168h-1.512V-4.2h2.8v1.092A3.236,3.236,0,0,1,106.3-.714,2.981,2.981,0,0,1,104.1.144Z" transform="translate(0.144 -1.08) rotate(90)" fill="#fff"/>
</svg>
