<svg xmlns="http://www.w3.org/2000/svg" xmlns:xlink="http://www.w3.org/1999/xlink" width="91.003" height="90.998" viewBox="0 0 91.003 90.998">
  <defs>
    <linearGradient id="linear-gradient" y1="1" x2="0.947" y2="0.037" gradientUnits="objectBoundingBox">
      <stop offset="0" stop-color="#fff"/>
      <stop offset="1" stop-color="#fff" stop-opacity="0.69"/>
    </linearGradient>
  </defs>
  <g id="ic_photoshop" transform="translate(0.001 -0.001)">
    <path id="Subtraction_5" data-name="Subtraction 5" d="M75.835,91H15.166A15.167,15.167,0,0,1,0,75.832V15.167A15.166,15.166,0,0,1,15.166,0H75.835A15.166,15.166,0,0,1,91,15.167V75.832A15.167,15.167,0,0,1,75.835,91ZM50.478,56.128a9.577,9.577,0,0,0,.391,2.718,10.568,10.568,0,0,0,1.14,2.527,9.966,9.966,0,0,0,1.79,2.161,10.938,10.938,0,0,0,2.363,1.621,11.451,11.451,0,0,0,2.855,1.033,15.192,15.192,0,0,0,3.272.337,12.884,12.884,0,0,0,8.354-2.577,8.558,8.558,0,0,0,2.388-2.993,9.275,9.275,0,0,0,.839-3.829,9.946,9.946,0,0,0-.523-3.31,7.671,7.671,0,0,0-1.566-2.631c-1.392-1.508-3.8-2.906-7.148-4.154a20.923,20.923,0,0,1-4.409-2.3,2.384,2.384,0,0,1-.928-1.857,2.839,2.839,0,0,1,2.993-3.087,2.961,2.961,0,0,1,2.4.96,4.463,4.463,0,0,1,.8,2.893h8.262a10.182,10.182,0,0,0-.783-4.07,8.679,8.679,0,0,0-2.35-3.148,10.617,10.617,0,0,0-3.652-2.016,15.233,15.233,0,0,0-4.679-.676,13.947,13.947,0,0,0-4.456.668,9.807,9.807,0,0,0-3.48,2.024,8.862,8.862,0,0,0-2.246,3.058,9.964,9.964,0,0,0-.275,6.819,7.615,7.615,0,0,0,1.43,2.492,11.4,11.4,0,0,0,2.715,2.182,30.929,30.929,0,0,0,4.316,2.111A19.415,19.415,0,0,1,64.774,55.5a2.614,2.614,0,0,1,1,1.949,2.927,2.927,0,0,1-.824,2.265,3.618,3.618,0,0,1-2.495.751,3.947,3.947,0,0,1-3.11-1.091,5.127,5.127,0,0,1-1-3.249Zm-32.3-32.721V65.921h8.587V50.975h5.732a17.7,17.7,0,0,0,5.863-.9,12.522,12.522,0,0,0,2.39-1.131A11.8,11.8,0,0,0,44.4,45.383a11.851,11.851,0,0,0,1.16-2.3,13.961,13.961,0,0,0,.694-2.629,19.095,19.095,0,0,0,0-5.949,14.683,14.683,0,0,0-.7-2.689,12.777,12.777,0,0,0-2.82-4.49,12.044,12.044,0,0,0-4.4-2.945,13.9,13.9,0,0,0-2.678-.734,17.686,17.686,0,0,0-2.993-.244ZM31.751,43.8h-5.9V30.554h5.988a4.389,4.389,0,0,1,3.69,1.926A8.5,8.5,0,0,1,36.9,37.539,7.079,7.079,0,0,1,35.557,42.2,4.681,4.681,0,0,1,31.751,43.8Z" transform="translate(0 0)" fill="url(#linear-gradient)"/>
  </g>
</svg>
