<svg xmlns="http://www.w3.org/2000/svg" xmlns:xlink="http://www.w3.org/1999/xlink" width="91" height="91" viewBox="0 0 91 91">
  <defs>
    <linearGradient id="linear-gradient" y1="1" x2="0.947" y2="0.037" gradientUnits="objectBoundingBox">
      <stop offset="0" stop-color="#fff"/>
      <stop offset="1" stop-color="#fff" stop-opacity="0.69"/>
    </linearGradient>
  </defs>
  <g id="ic_xd" transform="translate(-609.609 -333.61)">
    <path id="Subtraction_5" data-name="Subtraction 5" d="M75.834,91H15.166A15.183,15.183,0,0,1,0,75.834V15.169A15.184,15.184,0,0,1,15.166,0H75.834A15.184,15.184,0,0,1,91,15.169V75.834A15.183,15.183,0,0,1,75.834,91ZM56.857,36.042a9.465,9.465,0,0,0-1.993.2,7.467,7.467,0,0,0-1.737.608,6.919,6.919,0,0,0-1.491,1.01,7.964,7.964,0,0,0-1.239,1.41,9.45,9.45,0,0,0-.976,1.822,13.744,13.744,0,0,0-.7,2.238,26.2,26.2,0,0,0-.553,5.73l-.041,2.03a24.627,24.627,0,0,0,.6,5.457A11.883,11.883,0,0,0,50.4,60.513a7.676,7.676,0,0,0,1.229,1.406,6.767,6.767,0,0,0,1.478,1,8.192,8.192,0,0,0,3.7.8,6.385,6.385,0,0,0,1.617-.2,5.776,5.776,0,0,0,1.461-.6,6.492,6.492,0,0,0,1.3-1,8.815,8.815,0,0,0,1.15-1.406l.331,2.708h6.344V25.344H61.983V38.71a6.959,6.959,0,0,0-2.3-2A6.073,6.073,0,0,0,56.857,36.042Zm-23.8,14.622,0,.01L38,63.222h8.416l-8.627-18.11L46.217,27.3H37.9L33.061,39.64,28.246,27.317h-8.32l8.436,17.8-8.631,18.11h8.416l4.911-12.548ZM58.85,57.9a2.972,2.972,0,0,1-2.843-1.568c-.56-1.042-.833-2.845-.833-5.512V48.966c0-2.683.291-4.495.891-5.536a2.994,2.994,0,0,1,2.805-1.546,3.315,3.315,0,0,1,3.112,1.972V56.043A3.424,3.424,0,0,1,58.85,57.9Z" transform="translate(609.609 333.61)" fill="url(#linear-gradient)"/>
  </g>
</svg>
