<svg xmlns="http://www.w3.org/2000/svg" xmlns:xlink="http://www.w3.org/1999/xlink" width="10" height="100" viewBox="0 0 10 100">
  <defs>
    <clipPath id="clip-path">
      <path id="Path_49487" data-name="Path 49487" d="M0,0H10V100H0V0Z" transform="translate(616 435)" fill="#fff"/>
    </clipPath>
  </defs>
  <g id="intermediate_text" transform="translate(-616 -435)" clip-path="url(#clip-path)">
    <path id="intermediate_text-2" data-name="intermediate_text" d="M1.14,0V-8.4H2.388V0ZM11.688,0H10.512L6.876-5.7a5.5,5.5,0,0,1-.336-.624q.036.576.036.624V0H5.328V-8.4h1.26l3.54,5.6q.132.216.348.648-.036-.36-.036-.636V-8.4h1.248Zm5.964-7.2V0H16.4V-7.2H14.028V-8.4h6v1.2ZM22.368,0V-8.4h5.208v1.176h-3.96v2.3h2.556v1.176H23.616v2.568H27.84V0ZM30.3,0V-8.4h3.54a2.672,2.672,0,0,1,2.07.708,2.544,2.544,0,0,1,.642,1.776,2.523,2.523,0,0,1-.462,1.47,2.311,2.311,0,0,1-1.362.906L36.456,0H35.028L33.372-3.432H31.548V0Zm1.248-4.632h2.316A1.369,1.369,0,0,0,34.92-5a1.306,1.306,0,0,0,.336-.918,1.361,1.361,0,0,0-.318-.906A1.335,1.335,0,0,0,33.864-7.2H31.548ZM46.62,0H45.372V-4.6a11.1,11.1,0,0,1,.06-1.356q-.276.816-.516,1.392L42.888.144,40.848-4.6a14.549,14.549,0,0,1-.528-1.356A11.1,11.1,0,0,1,40.38-4.6V0H39.132V-8.4h1.26l2.256,5.244a6.276,6.276,0,0,1,.228.66q.084-.264.24-.66L45.36-8.4h1.26ZM49.5,0V-8.4h5.208v1.176h-3.96v2.3H53.3v1.176H50.748v2.568h4.224V0Zm7.932-8.4h2.352a4.47,4.47,0,0,1,1.854.36,3.127,3.127,0,0,1,1.254.972,4.369,4.369,0,0,1,.678,1.332A5.186,5.186,0,0,1,63.792-4.2a5.144,5.144,0,0,1-.21,1.482,4.583,4.583,0,0,1-.654,1.332A3.076,3.076,0,0,1,61.662-.378,4.571,4.571,0,0,1,59.736,0h-2.3ZM59.94-1.176a2.552,2.552,0,0,0,1.2-.27,2.07,2.07,0,0,0,.8-.72,3.309,3.309,0,0,0,.42-.96A4.271,4.271,0,0,0,62.5-4.2a3.664,3.664,0,0,0-.612-2.142,2.062,2.062,0,0,0-1.812-.882H58.68v6.048ZM66.432,0V-8.4H67.68V0Zm9.42,0L75.18-1.932h-3.4L71.1,0H69.8L72.84-8.4h1.284L77.148,0ZM74.8-3.036l-1.02-2.856a6.755,6.755,0,0,1-.288-.948q-.108.432-.288.948L72.168-3.036ZM81.456-7.2V0H80.208V-7.2H77.832V-8.4h6v1.2ZM86.172,0V-8.4H91.38v1.176H87.42v2.3h2.556v1.176H87.42v2.568h4.224V0Z" transform="translate(617 434) rotate(90)" fill="#fff"/>
  </g>
</svg>
