<svg xmlns="http://www.w3.org/2000/svg" xmlns:xlink="http://www.w3.org/1999/xlink" width="10" height="100" viewBox="0 0 10 100">
  <defs>
    <clipPath id="clip-path">
      <rect id="Rectangle_5082" data-name="Rectangle 5082" width="10" height="100" transform="translate(702 249)" fill="#fff"/>
    </clipPath>
  </defs>
  <g id="proficient_text" transform="translate(-702 -249)" clip-path="url(#clip-path)">
    <path id="proficient_text-2" data-name="proficient_text" d="M1.08,0V-8.4H4.452a2.7,2.7,0,0,1,2.1.744,2.622,2.622,0,0,1,.672,1.824,2.608,2.608,0,0,1-.7,1.788,2.639,2.639,0,0,1-2.076.78H2.328V0ZM4.524-4.464a1.319,1.319,0,0,0,1.062-.4,1.441,1.441,0,0,0,.342-.966,1.487,1.487,0,0,0-.33-.954A1.293,1.293,0,0,0,4.524-7.2h-2.2v2.736ZM9.384,0V-8.4h3.54a2.672,2.672,0,0,1,2.07.708,2.544,2.544,0,0,1,.642,1.776,2.523,2.523,0,0,1-.462,1.47,2.311,2.311,0,0,1-1.362.906L15.54,0H14.112L12.456-3.432H10.632V0Zm1.248-4.632h2.316A1.369,1.369,0,0,0,14-5a1.306,1.306,0,0,0,.336-.918,1.361,1.361,0,0,0-.318-.906A1.335,1.335,0,0,0,12.948-7.2H10.632ZM22.992-.108a3.814,3.814,0,0,1-1.416.252A3.814,3.814,0,0,1,20.16-.108,2.941,2.941,0,0,1,19.116-.78a3.726,3.726,0,0,1-.684-1,4.97,4.97,0,0,1-.4-1.176,6.35,6.35,0,0,1-.12-1.248,6.35,6.35,0,0,1,.12-1.248,4.97,4.97,0,0,1,.4-1.176,3.726,3.726,0,0,1,.684-1,2.941,2.941,0,0,1,1.044-.672,3.814,3.814,0,0,1,1.416-.252,3.814,3.814,0,0,1,1.416.252,2.941,2.941,0,0,1,1.044.672,3.726,3.726,0,0,1,.684,1,4.97,4.97,0,0,1,.4,1.176,6.35,6.35,0,0,1,.12,1.248,6.35,6.35,0,0,1-.12,1.248,4.97,4.97,0,0,1-.4,1.176,3.726,3.726,0,0,1-.684,1A2.941,2.941,0,0,1,22.992-.108Zm-2.52-1.23a2.138,2.138,0,0,0,1.1.282,2.071,2.071,0,0,0,1.1-.294,2.06,2.06,0,0,0,.744-.774,4.037,4.037,0,0,0,.39-1A4.561,4.561,0,0,0,23.94-4.2a4.818,4.818,0,0,0-.126-1.11,3.808,3.808,0,0,0-.39-1,2,2,0,0,0-.744-.75,2.139,2.139,0,0,0-1.1-.282,2.071,2.071,0,0,0-1.1.294,2.06,2.06,0,0,0-.744.774,4.037,4.037,0,0,0-.39,1A4.561,4.561,0,0,0,19.212-4.2a4.818,4.818,0,0,0,.126,1.11,3.808,3.808,0,0,0,.39,1A2,2,0,0,0,20.472-1.338ZM27.816,0V-8.4h5.208v1.176h-3.96v2.3H31.62v1.176H29.064V0ZM35.3,0V-8.4h1.248V0Zm7.38.144a3.517,3.517,0,0,1-1.362-.252,2.8,2.8,0,0,1-1-.672,3.739,3.739,0,0,1-.654-1A4.9,4.9,0,0,1,39.3-2.952,7.034,7.034,0,0,1,39.192-4.2a5.887,5.887,0,0,1,.192-1.5,5.337,5.337,0,0,1,.582-1.386,2.948,2.948,0,0,1,1.092-1.056,3.214,3.214,0,0,1,1.626-.4,3.251,3.251,0,0,1,1.836.486,2.63,2.63,0,0,1,1.02,1.182l-1.14.528a2.294,2.294,0,0,0-.714-.756,1.887,1.887,0,0,0-1-.24,1.876,1.876,0,0,0-1.044.288,1.923,1.923,0,0,0-.684.768,4.269,4.269,0,0,0-.354,1A5.077,5.077,0,0,0,40.488-4.2,4.213,4.213,0,0,0,41.052-2a1.794,1.794,0,0,0,1.632.948,1.936,1.936,0,0,0,1.7-1.08l1.164.444A2.87,2.87,0,0,1,42.684.144ZM48.072,0V-8.4H49.32V0ZM52.26,0V-8.4h5.208v1.176h-3.96v2.3h2.556v1.176H53.508v2.568h4.224V0ZM66.552,0H65.376L61.74-5.7a5.5,5.5,0,0,1-.336-.624q.036.576.036.624V0H60.192V-8.4h1.26l3.54,5.6q.132.216.348.648-.036-.36-.036-.636V-8.4h1.248Zm5.964-7.2V0H71.268V-7.2H68.892V-8.4h6v1.2Z" transform="translate(703.5 249.5) rotate(90)" fill="#fff"/>
  </g>
</svg>
